<svg style="display: none;" aria-hidden="true" xmlns="http://www.w3.org/2000/svg" xmlns:xlink="http://www.w3.org/1999/xlink"><symbol viewBox="0 0 12 10" fill="none" id="svg-arrow-btn"><path fill-rule="evenodd" clip-rule="evenodd" d="M0 5C0 4.81059 0.079009 4.62895 0.219646 4.49502C0.360282 4.36108 0.551026 4.28584 0.749916 4.28584H9.43845L6.21831 1.22068C6.07749 1.08658 5.99838 0.904705 5.99838 0.715059C5.99838 0.525414 6.07749 0.343536 6.21831 0.209436C6.35912 0.0753365 6.5501 0 6.74925 0C6.94839 0 7.13937 0.0753365 7.28019 0.209436L11.7797 4.49438C11.8495 4.56072 11.9049 4.63952 11.9427 4.72629C11.9805 4.81305 12 4.90606 12 5C12 5.09394 11.9805 5.18695 11.9427 5.27371C11.9049 5.36048 11.8495 5.43928 11.7797 5.50562L7.28019 9.79056C7.13937 9.92466 6.94839 10 6.74925 10C6.5501 10 6.35912 9.92466 6.21831 9.79056C6.07749 9.65646 5.99838 9.47459 5.99838 9.28494C5.99838 9.0953 6.07749 8.91342 6.21831 8.77932L9.43845 5.71416H0.749916C0.551026 5.71416 0.360282 5.63892 0.219646 5.50499C0.079009 5.37106 0 5.18941 0 5Z" fill="#fff"/></symbol><symbol viewBox="0 0 24 14" fill="none" id="svg-burger"><path d="M0.571289 0H23.4284V2.28571H0.571289V0ZM6.28557 5.71429H23.4284V8H6.28557V5.71429ZM13.4284 11.4286H23.4284V13.7143H13.4284V11.4286Z" fill="#fff"/></symbol><symbol viewBox="0 0 24 23" fill="none" id="svg-card"><g clip-path="url(#cclip0_1479_30012)" fill="#fff"><path d="M8.00039 22.4002C8.88405 22.4002 9.60039 21.6839 9.60039 20.8002 9.60039 19.9165 8.88405 19.2002 8.00039 19.2002 7.11674 19.2002 6.40039 19.9165 6.40039 20.8002 6.40039 21.6839 7.11674 22.4002 8.00039 22.4002zM19.1996 22.4002C20.0833 22.4002 20.7996 21.6839 20.7996 20.8002 20.7996 19.9165 20.0833 19.2002 19.1996 19.2002 18.316 19.2002 17.5996 19.9165 17.5996 20.8002 17.5996 21.6839 18.316 22.4002 19.1996 22.4002zM22.4 4.00016H4.656L4 .640163C3.9626.456742 3.86206.292245 3.71589.175305 3.56971.0583653 3.38716-.00361159 3.2.000162751H0V1.60016H2.544L5.6 16.9602C5.6374 17.1436 5.73794 17.3081 5.88411 17.425 6.03029 17.542 6.21284 17.6039 6.4 17.6002H20.8V16.0002H7.056L6.4 12.8002H20.8C20.9849 12.8047 21.1657 12.745 21.3116 12.6312 21.4574 12.5174 21.5594 12.3566 21.6 12.1762L23.2 4.97616C23.2268 4.85746 23.2262 4.73421 23.1982 4.61579 23.1702 4.49737 23.1155 4.38689 23.0384 4.29278 22.9612 4.19867 22.8636 4.12339 22.753 4.07268 22.6424 4.02198 22.5217 3.99717 22.4 4.00016zM20.16 11.2002H6.096L4.976 5.60016H21.4L20.16 11.2002z"/></g><defs><clipPath id="cclip0_1479_30012"><path fill="#fff" d="M0 0H24V22.4H0z"/></clipPath></defs></symbol><symbol viewBox="0 0 73 72" fill="none" id="svg-con-mail"><g clip-path="url(#dclip0_1479_16133)"><path fill-rule="evenodd" clip-rule="evenodd" d="M1.225 16.1271C1.67868 14.1024 2.79395 12.2946 4.38815 10.9997C5.98235 9.70493 7.96098 8.99986 10 9H64C66.039 8.99986 68.0177 9.70493 69.6118 10.9997C71.206 12.2946 72.3213 14.1024 72.775 16.1271L37 38.3975L1.225 16.1271ZM1 21.3612V53.9212L27.1135 37.6137L1 21.3612ZM31.4245 40.3042L1.8595 58.7612C2.58997 60.3301 3.74287 61.6553 5.18402 62.5827C6.62516 63.5102 8.29529 64.0017 10 64H64C65.7044 64.0004 67.3739 63.5078 68.8143 62.5796C70.2546 61.6513 71.4065 60.3256 72.136 58.7567L42.571 40.2996L37 43.7692L31.4245 40.2996V40.3042ZM46.8865 37.6183L73 53.9212V21.3612L46.8865 37.6137V37.6183Z"/></g><defs><clipPath id="dclip0_1479_16133"><path transform="translate(.5)" d="M0 0H72V72H0z"/></clipPath></defs></symbol><symbol viewBox="0 0 73 72" fill="none" id="svg-con-mark"><path d="M36.5 3C22.4168 3 11 14.3074 11 28.2559C11 32.9206 11.9219 37.7384 14.5673 41.2109L36.5 70L58.4327 41.2109C60.8356 38.0569 62 32.4811 62 28.2559C62.0001 14.3074 50.5833 3 36.5 3ZM36.5 17.6276C42.4257 17.6276 47.231 22.3869 47.231 28.2558C47.231 34.1248 42.4257 38.8841 36.5 38.8841C30.5743 38.8841 25.7691 34.1248 25.7691 28.2559C25.7691 22.3869 30.5743 17.6276 36.5 17.6276Z"/></symbol><symbol viewBox="0 0 73 72" fill="none" id="svg-cont-tel"><g clip-path="url(#fclip0_1479_16113)"><path d="M56.929 38.9947C56.5775 38.6426 56.16 38.3632 55.7004 38.1726C55.2408 37.982 54.7482 37.8839 54.2506 37.8839C53.7531 37.8839 53.2604 37.982 52.8008 38.1726C52.3413 38.3632 51.9238 38.6426 51.5722 38.9947L45.5335 45.0334C42.7339 44.1999 37.5097 42.3057 34.1987 38.9947C30.8876 35.6836 28.9934 30.4594 28.16 27.6598L34.1987 21.6211C34.5508 21.2696 34.8301 20.8521 35.0207 20.3925C35.2113 19.9329 35.3094 19.4403 35.3094 18.9427C35.3094 18.4452 35.2113 17.9525 35.0207 17.4929C34.8301 17.0333 34.5508 16.6159 34.1987 16.2643L19.0451 1.11076C18.6936 0.758646 18.2761 0.479298 17.8165 0.288701C17.3569 0.0981045 16.8642 0 16.3667 0C15.8692 0 15.3765 0.0981045 14.9169 0.288701C14.4573 0.479298 14.0398 0.758646 13.6883 1.11076L3.41418 11.3849C1.97459 12.8245 1.16387 14.802 1.19418 16.8212C1.28131 22.2159 2.70954 40.9533 17.4767 55.7204C32.2439 70.4876 50.9813 71.912 56.3797 72.003H56.4858C58.4861 72.003 60.3765 71.215 61.8085 69.783L72.0826 59.5088C72.4347 59.1573 72.7141 58.7398 72.9047 58.2802C73.0953 57.8207 73.1934 57.328 73.1934 56.8304C73.1934 56.3329 73.0953 55.8402 72.9047 55.3807C72.7141 54.9211 72.4347 54.5036 72.0826 54.1521L56.929 38.9947ZM56.4479 64.4224C51.72 64.3428 35.5435 63.0737 22.8335 50.3599C10.0818 37.6081 8.84674 21.3749 8.77097 16.7417L16.3667 9.14594L26.1635 18.9427L21.2651 23.8411C20.8198 24.2861 20.4924 24.835 20.3125 25.4382C20.1326 26.0414 20.1058 26.68 20.2346 27.2961C20.3256 27.7318 22.5494 38.0627 28.8381 44.3515C35.1268 50.6402 45.4578 52.864 45.8934 52.9549C46.5092 53.0874 47.1484 53.0627 47.7522 52.8833C48.356 52.7039 48.9049 52.3755 49.3485 51.9283L54.2506 47.0299L64.0474 56.8267L56.4479 64.4224Z"/></g><defs><clipPath id="fclip0_1479_16113"><path fill="#fff" transform="translate(.5)" d="M0 0H72V72H0z"/></clipPath></defs></symbol><symbol viewBox="0 0 25 24" fill="none" id="svg-fb"><path fill-rule="evenodd" clip-rule="evenodd" d="M24 11.5704C24 5.1801 18.8515 0 12.5014 0C6.14848 0.00143732 1 5.1801 1 11.5719C1 17.3456 5.2056 22.1319 10.7019 23V14.9151H7.78415V11.5719H10.7048V9.02062C10.7048 6.12155 12.4224 4.52037 15.0484 4.52037C16.3075 4.52037 17.6226 4.74603 17.6226 4.74603V7.59193H16.1724C14.7451 7.59193 14.2995 8.4845 14.2995 9.40008V11.5704H17.4875L16.9787 14.9136H14.2981V22.9986C19.7944 22.1304 24 17.3441 24 11.5704Z" fill="#23A6F0"/></symbol><symbol viewBox="0 0 25 24" fill="none" id="svg-inst"><path d="M13 1C10.0149 1 9.6395 1.01375 8.46663 1.066C7.29375 1.121 6.49487 1.30525 5.795 1.5775C5.06088 1.85363 4.39593 2.28676 3.84663 2.84663C3.2871 3.39621 2.85402 4.06108 2.5775 4.795C2.30525 5.4935 2.11963 6.29375 2.066 7.4625C2.01375 8.63812 2 9.01213 2 12.0014C2 14.9879 2.01375 15.3619 2.066 16.5347C2.121 17.7063 2.30525 18.5051 2.5775 19.205C2.85938 19.9282 3.23475 20.5415 3.84663 21.1534C4.45713 21.7652 5.07037 22.142 5.79363 22.4225C6.49487 22.6947 7.29238 22.8804 8.46388 22.934C9.63813 22.9862 10.0121 23 13 23C15.9879 23 16.3605 22.9862 17.5347 22.934C18.7049 22.879 19.5065 22.6947 20.2064 22.4225C20.94 22.1462 21.6045 21.7131 22.1534 21.1534C22.7652 20.5415 23.1406 19.9282 23.4225 19.205C23.6934 18.5051 23.879 17.7063 23.934 16.5347C23.9862 15.3619 24 14.9879 24 12C24 9.01213 23.9862 8.63813 23.934 7.46388C23.879 6.29375 23.6934 5.4935 23.4225 4.795C23.146 4.06106 22.7129 3.39618 22.1534 2.84663C21.6042 2.28655 20.9392 1.85339 20.205 1.5775C19.5037 1.30525 18.7035 1.11963 17.5334 1.066C16.3591 1.01375 15.9865 1 12.9973 1H13.0014H13ZM12.0141 2.98275H13.0014C15.9384 2.98275 16.2863 2.99238 17.4454 3.046C18.5179 3.09413 19.1009 3.27425 19.4886 3.42412C20.0015 3.6235 20.3686 3.86275 20.7536 4.24775C21.1386 4.63275 21.3765 4.9985 21.5759 5.51275C21.7271 5.89913 21.9059 6.48213 21.954 7.55463C22.0076 8.71375 22.0186 9.06163 22.0186 11.9973C22.0186 14.9329 22.0076 15.2821 21.954 16.4412C21.9059 17.5138 21.7257 18.0954 21.5759 18.4831C21.3995 18.9607 21.118 19.3926 20.7522 19.7467C20.3672 20.1318 20.0015 20.3696 19.4873 20.569C19.1023 20.7203 18.5192 20.899 17.4454 20.9485C16.2863 21.0007 15.9384 21.0131 13.0014 21.0131C10.0644 21.0131 9.71513 21.0007 8.556 20.9485C7.4835 20.899 6.90188 20.7203 6.51412 20.569C6.03631 20.3929 5.60405 20.1119 5.24913 19.7467C4.88303 19.392 4.60112 18.9598 4.42412 18.4818C4.27425 18.0954 4.09413 17.5124 4.046 16.4399C3.99375 15.2808 3.98275 14.9329 3.98275 11.9945C3.98275 9.0575 3.99375 8.711 4.046 7.55187C4.0955 6.47937 4.27425 5.89638 4.4255 5.50863C4.62488 4.99575 4.86412 4.62862 5.24913 4.24362C5.63412 3.85862 5.99988 3.62075 6.51412 3.42138C6.90188 3.27013 7.4835 3.09138 8.556 3.04188C9.57075 2.99513 9.964 2.98138 12.0141 2.98V2.98275ZM18.8726 4.80875C18.6993 4.80875 18.5276 4.84289 18.3675 4.90923C18.2073 4.97557 18.0618 5.0728 17.9392 5.19537C17.8167 5.31794 17.7194 5.46346 17.6531 5.62361C17.5868 5.78376 17.5526 5.95541 17.5526 6.12875C17.5526 6.30209 17.5868 6.47374 17.6531 6.63389C17.7194 6.79404 17.8167 6.93956 17.9392 7.06213C18.0618 7.1847 18.2073 7.28193 18.3675 7.34827C18.5276 7.41461 18.6993 7.44875 18.8726 7.44875C19.2227 7.44875 19.5585 7.30968 19.806 7.06213C20.0536 6.81458 20.1926 6.47884 20.1926 6.12875C20.1926 5.77866 20.0536 5.44292 19.806 5.19537C19.5585 4.94782 19.2227 4.80875 18.8726 4.80875ZM13.0014 6.3515C12.2521 6.33981 11.508 6.47729 10.8123 6.75594C10.1167 7.0346 9.48346 7.44885 8.94946 7.97458C8.41546 8.50032 7.99138 9.12703 7.70191 9.81823C7.41244 10.5094 7.26336 11.2513 7.26336 12.0007C7.26336 12.7501 7.41244 13.4919 7.70191 14.1831C7.99138 14.8743 8.41546 15.5011 8.94946 16.0268C9.48346 16.5525 10.1167 16.9668 10.8123 17.2454C11.508 17.5241 12.2521 17.6616 13.0014 17.6499C14.4844 17.6267 15.8988 17.0214 16.9393 15.9645C17.9799 14.9076 18.5631 13.4839 18.5631 12.0007C18.5631 10.5175 17.9799 9.09382 16.9393 8.03691C15.8988 6.97999 14.4844 6.37464 13.0014 6.3515ZM13.0014 8.33288C13.974 8.33288 14.9067 8.71923 15.5944 9.40695C16.2821 10.0947 16.6685 11.0274 16.6685 12C16.6685 12.9726 16.2821 13.9053 15.5944 14.593C14.9067 15.2808 13.974 15.6671 13.0014 15.6671C12.0288 15.6671 11.096 15.2808 10.4083 14.593C9.72061 13.9053 9.33425 12.9726 9.33425 12C9.33425 11.0274 9.72061 10.0947 10.4083 9.40695C11.096 8.71923 12.0288 8.33288 13.0014 8.33288Z" fill="#23A6F0"/></symbol><symbol viewBox="0 0 48 40" fill="none" id="svg-people"><g clip-path="url(#iclip0_1479_15859)"><path fill-rule="evenodd" clip-rule="evenodd" d="M45.917 38.6666C45.917 38.6666 49.0003 38.6666 49.0003 35.5555C49.0003 32.4444 45.917 23.111 33.5837 23.111C21.2503 23.111 18.167 32.4444 18.167 35.5555C18.167 38.6666 21.2503 38.6666 21.2503 38.6666H45.917ZM21.3182 35.5555H45.8492C45.8636 35.5538 45.878 35.5517 45.8923 35.5493L45.917 35.543C45.9108 34.7217 45.4021 32.3386 43.5737 30.1919C41.8717 28.179 38.8808 26.2221 33.5837 26.2221C28.2896 26.2221 25.2987 28.1821 23.5937 30.1919C21.7652 32.3386 21.2534 34.7248 21.2503 35.543C21.2729 35.5474 21.2955 35.5516 21.3182 35.5555ZM33.5837 16.8888C35.2192 16.8888 36.7877 16.2333 37.9441 15.0664C39.1006 13.8995 39.7503 12.3168 39.7503 10.6666C39.7503 9.01635 39.1006 7.4337 37.9441 6.26681C36.7877 5.09992 35.2192 4.44436 33.5837 4.44436C31.9482 4.44436 30.3796 5.09992 29.2232 6.26681C28.0667 7.4337 27.417 9.01635 27.417 10.6666C27.417 12.3168 28.0667 13.8995 29.2232 15.0664C30.3796 16.2333 31.9482 16.8888 33.5837 16.8888ZM42.8337 10.6666C42.8337 11.8923 42.5944 13.1059 42.1295 14.2383C41.6647 15.3707 40.9833 16.3996 40.1244 17.2662C39.2655 18.1329 38.2457 18.8204 37.1235 19.2895C36.0012 19.7585 34.7984 19.9999 33.5837 19.9999C32.3689 19.9999 31.1661 19.7585 30.0438 19.2895C28.9216 18.8204 27.9019 18.1329 27.0429 17.2662C26.184 16.3996 25.5026 15.3707 25.0378 14.2383C24.5729 13.1059 24.3337 11.8923 24.3337 10.6666C24.3337 8.19123 25.3082 5.81726 27.0429 4.06692C28.7776 2.31658 31.1304 1.33325 33.5837 1.33325C36.0369 1.33325 38.3897 2.31658 40.1244 4.06692C41.8591 5.81726 42.8337 8.19123 42.8337 10.6666ZM21.053 23.9821C19.8196 23.5903 18.5482 23.3326 17.2605 23.2137C16.5369 23.1443 15.8105 23.11 15.0837 23.111C2.75033 23.111 -0.333008 32.4444 -0.333008 35.5555C-0.333008 37.6306 0.693742 38.6666 2.75033 38.6666H15.7497C15.2926 37.6953 15.0646 36.6305 15.0837 35.5555C15.0837 32.4132 16.2461 29.2026 18.4445 26.5208C19.1937 25.6061 20.0663 24.7506 21.053 23.9821ZM14.837 26.2221C9.69399 26.2844 6.77408 28.2133 5.09366 30.1919C3.25291 32.351 2.75033 34.7435 2.75033 35.5555H12.0003C12.0003 32.3044 12.9962 29.0657 14.837 26.2221ZM4.29199 12.2221C4.29199 9.74679 5.26654 7.37282 7.00125 5.62248C8.73597 3.87214 11.0887 2.88881 13.542 2.88881C15.9952 2.88881 18.348 3.87214 20.0827 5.62248C21.8174 7.37282 22.792 9.74679 22.792 12.2221C22.792 14.6975 21.8174 17.0715 20.0827 18.8218C18.348 20.5721 15.9952 21.5555 13.542 21.5555C11.0887 21.5555 8.73597 20.5721 7.00125 18.8218C5.26654 17.0715 4.29199 14.6975 4.29199 12.2221ZM13.542 5.99992C11.9065 5.99992 10.338 6.65547 9.1815 7.82236C8.02503 8.98926 7.37533 10.5719 7.37533 12.2221C7.37533 13.8724 8.02503 15.455 9.1815 16.6219C10.338 17.7888 11.9065 18.4444 13.542 18.4444C15.1775 18.4444 16.746 17.7888 17.9025 16.6219C19.059 15.455 19.7087 13.8724 19.7087 12.2221C19.7087 10.5719 19.059 8.98926 17.9025 7.82236C16.746 6.65547 15.1775 5.99992 13.542 5.99992Z" fill="#23A6F0"/></g><defs><clipPath id="iclip0_1479_15859"><path fill="#fff" d="M0 0H48V39.529H0z"/></clipPath></defs></symbol><symbol viewBox="0 0 20 22" fill="none" id="svg-play"><path d="M18.5396 12.7031L3.42823 21.7267C2.14579 22.4917 0.5 21.5654 0.5 20.0232V1.97593C0.5 0.436145 2.14342 -0.492614 3.42823 0.274834L18.5396 9.29846C18.8313 9.46985 19.0738 9.71759 19.2425 10.0166C19.4112 10.3155 19.5 10.6551 19.5 11.0008C19.5 11.3465 19.4112 11.686 19.2425 11.985C19.0738 12.284 18.8313 12.5317 18.5396 12.7031Z" fill="#fff"/></symbol><symbol viewBox="0 0 24 24" fill="none" id="svg-search"><g clip-path="url(#kclip0_1479_30010)"><path fill-rule="evenodd" clip-rule="evenodd" d="M17.1901 15.478L23.6458 21.9337C23.8727 22.1608 24.0001 22.4687 24 22.7897C23.9999 23.1107 23.8723 23.4185 23.6452 23.6454C23.4181 23.8723 23.1102 23.9998 22.7892 23.9996C22.4682 23.9995 22.1604 23.8719 21.9335 23.6448L15.4778 17.1891C13.5479 18.6839 11.1211 19.3873 8.69104 19.1563C6.26097 18.9252 4.01018 17.7771 2.39656 15.9455C0.782936 14.1139 -0.0723147 11.7364 0.00479537 9.29656C0.0819054 6.85675 1.08558 4.53796 2.81165 2.81189C4.53771 1.08583 6.85651 0.0821496 9.29632 0.00503951C11.7361 -0.0720706 14.1137 0.78318 15.9453 2.3968C17.7769 4.01043 18.925 6.26122 19.156 8.69129C19.387 11.1214 18.6836 13.5482 17.1889 15.478H17.1901ZM9.60045 16.7992C11.5099 16.7992 13.3412 16.0406 14.6914 14.6904C16.0416 13.3402 16.8001 11.509 16.8001 9.59949C16.8001 7.69002 16.0416 5.85876 14.6914 4.50856C13.3412 3.15836 11.5099 2.39983 9.60045 2.39983C7.69098 2.39983 5.85971 3.15836 4.50951 4.50856C3.15932 5.85876 2.40078 7.69002 2.40078 9.59949C2.40078 11.509 3.15932 13.3402 4.50951 14.6904C5.85971 16.0406 7.69098 16.7992 9.60045 16.7992Z" fill="#fff"/></g><defs><clipPath id="kclip0_1479_30010"><path fill="#fff" d="M0 0H24V24H0z"/></clipPath></defs></symbol><symbol viewBox="0 0 23 23" fill="none" id="svg-star-0"><path d="M6.0319 13.1377L4.66522 19.0557C4.6229 19.2349 4.63561 19.4227 4.70168 19.5945C4.76775 19.7664 4.88411 19.9143 5.03557 20.0191C5.18703 20.1238 5.36655 20.1804 5.55068 20.1814C5.7348 20.1825 5.91498 20.1281 6.06767 20.0252L11.062 16.6956L16.0564 20.0252C16.2126 20.1289 16.3968 20.1823 16.5843 20.1782C16.7718 20.1741 16.9536 20.1127 17.1051 20.0022C17.2567 19.8917 17.3707 19.7375 17.432 19.5602C17.4933 19.383 17.4988 19.1912 17.4478 19.0107L15.7702 13.1404L19.9308 9.39628C20.064 9.27629 20.1592 9.11988 20.2045 8.94638C20.2498 8.77289 20.2432 8.58992 20.1856 8.4201C20.1281 8.25029 20.022 8.10107 19.8805 7.99091C19.739 7.88075 19.5683 7.81448 19.3896 7.80029L14.1604 7.38386L11.8976 2.37485C11.8255 2.21356 11.7082 2.0766 11.5599 1.98049C11.4116 1.88439 11.2387 1.83325 11.062 1.83325C10.8853 1.83325 10.7124 1.88439 10.5641 1.98049C10.4159 2.0766 10.2986 2.21356 10.2264 2.37485L7.9636 7.38386L2.73445 7.79937C2.55875 7.81329 2.39079 7.87753 2.25065 7.98441C2.11052 8.09128 2.00414 8.23627 1.94424 8.40202C1.88435 8.56777 1.87347 8.74727 1.91292 8.91904C1.95237 9.09081 2.04047 9.24758 2.16668 9.37059L6.0319 13.1377ZM8.64877 9.16972C8.81249 9.15682 8.96973 9.10012 9.104 9.00555C9.23827 8.91098 9.34462 8.78203 9.41191 8.63222L11.062 4.98071L12.7121 8.63222C12.7794 8.78203 12.8858 8.91098 13.02 9.00555C13.1543 9.10012 13.3115 9.15682 13.4753 9.16972L17.1185 9.45865L14.1182 12.159C13.8577 12.3938 13.7541 12.7552 13.8495 13.0927L14.9988 17.1148L11.572 14.83C11.4216 14.729 11.2445 14.6751 11.0634 14.6751C10.8822 14.6751 10.7052 14.729 10.5548 14.83L6.9739 17.2175L7.937 13.0478C7.97231 12.8944 7.96757 12.7346 7.92323 12.5836C7.8789 12.4326 7.79646 12.2955 7.68384 12.1856L4.89728 9.46874L8.64877 9.16972Z" fill="#F3CD03"/></symbol><symbol viewBox="0 0 23 23" fill="none" id="svg-star-1"><path d="M20.1564 8.41927C20.0988 8.24946 19.9927 8.10025 19.8512 7.99006C19.7097 7.87987 19.539 7.81353 19.3603 7.79922L14.1311 7.38371L11.8683 2.3747C11.7963 2.21337 11.679 2.07634 11.5308 1.98016C11.3826 1.88397 11.2097 1.83274 11.033 1.83264C10.8563 1.83254 10.6834 1.88359 10.535 1.97961C10.3867 2.07563 10.2694 2.21253 10.1971 2.37378L7.9343 7.38371L2.70515 7.79922C2.52946 7.81314 2.3615 7.87738 2.22136 7.98425C2.08122 8.09113 1.97484 8.23612 1.91494 8.40187C1.85505 8.56762 1.84418 8.74712 1.88362 8.91889C1.92307 9.09066 2.01117 9.24743 2.13738 9.37044L6.00169 13.1375L4.63501 19.0555C4.59351 19.2347 4.60681 19.4221 4.67318 19.5936C4.73956 19.7651 4.85594 19.9127 5.00722 20.0172C5.15851 20.1217 5.33772 20.1783 5.52159 20.1797C5.70547 20.1811 5.88552 20.1272 6.03838 20.025L11.0327 16.6955L16.0271 20.025C16.1833 20.1288 16.3676 20.1822 16.555 20.1781C16.7425 20.1739 16.9243 20.1125 17.0758 20.002C17.2274 19.8916 17.3414 19.7373 17.4027 19.5601C17.464 19.3828 17.4695 19.1911 17.4185 19.0106L15.7409 13.1403L19.9015 9.39612C20.1739 9.15031 20.2739 8.7669 20.1564 8.41927Z" fill="#F3CD03"/></symbol><symbol viewBox="0 0 25 20" fill="none" id="svg-twt"><path d="M8.91075 19C17.213 19 21.7546 12.0731 21.7546 6.07669C21.7546 5.88285 21.7546 5.68625 21.7464 5.49241C22.6306 4.84789 23.3937 4.04993 24 3.13592C23.1741 3.50262 22.2988 3.7443 21.4026 3.85312C22.3466 3.28495 23.0536 2.391 23.3923 1.3374C22.5054 1.86647 21.5346 2.23787 20.5226 2.43534C19.8423 1.70572 18.9419 1.22237 17.9611 1.06016C16.9803 0.897946 15.9737 1.06592 15.0973 1.53807C14.2209 2.01023 13.5236 2.7602 13.1134 3.67182C12.7031 4.58345 12.6029 5.60585 12.8281 6.58066C11.0334 6.49005 9.27762 6.02057 7.67468 5.20269C6.07175 4.3848 4.65744 3.23678 3.5235 1.83307C2.94784 2.83421 2.77216 4.01843 3.03214 5.14526C3.29211 6.27209 3.96825 7.25705 4.92325 7.90013C4.20762 7.87565 3.50772 7.68215 2.88 7.33524V7.39754C2.88123 8.44631 3.24205 9.46247 3.90145 10.2743C4.56086 11.0861 5.4784 11.6438 6.499 11.853C6.11161 11.9605 5.71144 12.014 5.30963 12.0122C5.02635 12.0131 4.74365 11.9867 4.46537 11.9333C4.75383 12.8361 5.3155 13.6254 6.07171 14.1908C6.82793 14.7561 7.74081 15.0691 8.6825 15.0859C7.08276 16.3511 5.10668 17.0373 3.0725 17.034C2.71407 17.0355 2.35588 17.0147 2 16.9716C4.06458 18.297 6.46228 19.0008 8.91075 19Z" fill="#23A6F0"/></symbol></svg>
